<svg width="223" height="71" viewBox="0 0 223 71" fill="none" xmlns="http://www.w3.org/2000/svg">
<path d="M37.76 57.04C37.76 61.072 36.736 64.24 34.688 66.544C32.64 68.848 29.696 70 25.856 70C24.576 70 23.36 69.84 22.208 69.52C21.056 69.136 20.032 68.592 19.136 67.888C18.24 67.184 17.504 66.32 16.928 65.296C16.416 64.272 16.16 63.088 16.16 61.744C16.16 61.232 16.192 60.784 16.256 60.4C16.384 59.952 16.544 59.472 16.736 58.96C17.568 59.728 18.592 60.112 19.808 60.112C20.576 60.112 21.152 59.92 21.536 59.536C21.984 59.152 22.336 58.672 22.592 58.096C22.848 57.456 23.008 56.784 23.072 56.08C23.136 55.312 23.168 54.576 23.168 53.872V16.432C23.168 15.728 23.136 15.024 23.072 14.32C23.008 13.552 22.848 12.88 22.592 12.304C22.336 11.664 21.984 11.152 21.536 10.768C21.152 10.384 20.576 10.192 19.808 10.192C18.592 10.192 17.568 10.576 16.736 11.344C16.352 10.32 16.16 9.392 16.16 8.56C16.16 7.536 16.32 6.544 16.64 5.584C17.024 4.56 17.6 3.664 18.368 2.89599C19.136 2.128 20.096 1.52 21.248 1.07199C22.464 0.559998 23.936 0.303999 25.664 0.303999C27.584 0.303999 29.28 0.655998 30.752 1.36C32.288 2 33.568 2.928 34.592 4.144C35.616 5.296 36.384 6.672 36.896 8.272C37.472 9.808 37.76 11.472 37.76 13.264V57.04ZM14.624 70H13.664C12 70 10.4 69.84 8.864 69.52C7.328 69.2 5.952 68.624 4.736 67.792C3.584 66.96 2.624 65.808 1.856 64.336C1.152 62.864 0.8 60.944 0.8 58.576V0.303999H2.336C3.872 0.303999 5.376 0.495998 6.848 0.879997C8.32 1.2 9.632 1.808 10.784 2.704C11.936 3.536 12.864 4.688 13.568 6.16C14.272 7.632 14.624 9.52 14.624 11.824V70ZM53.9218 2.512C53.0898 5.84 51.8738 9.584 50.2738 13.744C48.7378 17.84 47.2018 21.584 45.6658 24.976H39.4258C40.0658 22.544 40.6738 19.952 41.2498 17.2C41.8898 14.384 42.4658 11.632 42.9778 8.944C43.4898 6.192 43.9058 3.696 44.2258 1.456H53.2498L53.9218 2.512Z" fill="#F2F2F2"/>
<path d="M69.551 39.28H68.399C66.927 39.28 65.455 39.12 63.983 38.8C62.511 38.48 61.135 37.904 59.855 37.072C58.639 36.176 57.647 34.992 56.879 33.52C56.111 31.984 55.727 30.064 55.727 27.76V11.824C55.727 9.52 56.111 7.632 56.879 6.16C57.647 4.624 58.639 3.44 59.855 2.608C61.135 1.712 62.511 1.104 63.983 0.783998C65.455 0.463999 66.927 0.303999 68.399 0.303999H69.551V39.28ZM55.055 60.784C55.055 58.8 55.439 57.2 56.207 55.984C56.975 54.704 57.903 53.712 58.991 53.008C60.079 52.304 61.231 51.856 62.447 51.664C63.663 51.408 64.719 51.28 65.615 51.28C66.383 51.28 67.023 51.344 67.535 51.472V56.272C67.535 58.64 68.463 59.824 70.319 59.824C70.895 59.824 71.375 59.728 71.759 59.536C72.143 59.344 72.559 59.056 73.007 58.672C73.199 59.184 73.295 59.824 73.295 60.592C73.359 61.36 73.391 61.968 73.391 62.416C73.391 63.184 73.263 64.016 73.007 64.912C72.751 65.808 72.303 66.64 71.663 67.408C71.087 68.112 70.255 68.72 69.167 69.232C68.079 69.744 66.703 70 65.039 70C63.311 70 61.807 69.712 60.527 69.136C59.311 68.56 58.287 67.856 57.455 67.024C56.687 66.128 56.079 65.136 55.631 64.048C55.247 62.96 55.055 61.872 55.055 60.784ZM74.927 31.12H76.079C77.487 31.12 78.927 31.28 80.399 31.6C81.935 31.92 83.311 32.528 84.527 33.424C85.807 34.256 86.831 35.44 87.599 36.976C88.367 38.448 88.751 40.336 88.751 42.64V58.576C88.751 60.88 88.367 62.8 87.599 64.336C86.831 65.808 85.807 66.992 84.527 67.888C83.311 68.72 81.935 69.296 80.399 69.616C78.927 69.936 77.487 70.096 76.079 70.096H74.927V31.12ZM89.231 9.51999C89.231 11.568 88.847 13.2 88.079 14.416C87.311 15.632 86.383 16.592 85.295 17.296C84.207 18 83.055 18.48 81.839 18.736C80.623 18.928 79.567 19.024 78.671 19.024C77.903 19.024 77.263 18.96 76.751 18.832V14.032C76.751 11.664 75.823 10.48 73.967 10.48C73.391 10.48 72.911 10.576 72.527 10.768C72.143 10.96 71.727 11.248 71.279 11.632C71.087 11.12 70.959 10.48 70.895 9.712C70.895 8.944 70.895 8.336 70.895 7.888C70.895 7.12 71.023 6.288 71.279 5.392C71.535 4.496 71.951 3.696 72.527 2.992C73.167 2.224 74.031 1.584 75.119 1.07199C76.207 0.559998 77.583 0.303999 79.247 0.303999C80.975 0.303999 82.447 0.591999 83.663 1.168C84.943 1.744 85.967 2.48 86.735 3.376C87.567 4.208 88.175 5.2 88.559 6.352C89.007 7.44 89.231 8.496 89.231 9.51999ZM106.443 55.312C106.443 55.952 106.443 56.624 106.443 57.328C106.507 58.032 106.635 58.672 106.827 59.248C107.083 59.824 107.435 60.304 107.883 60.688C108.331 61.072 108.971 61.264 109.803 61.264C110.827 61.264 111.595 61.008 112.107 60.496C112.683 59.92 113.099 59.44 113.355 59.056C113.483 59.44 113.579 60.016 113.643 60.784C113.771 61.552 113.835 62.192 113.835 62.704C113.835 65.136 113.003 66.96 111.339 68.176C109.739 69.392 107.595 70 104.907 70C101.387 70 98.6028 68.912 96.5548 66.736C94.5708 64.56 93.5788 60.976 93.5788 55.984V11.92C93.5788 10.32 93.7708 8.816 94.1548 7.408C94.6028 6 95.2748 4.784 96.1708 3.75999C97.0668 2.672 98.2188 1.84 99.6268 1.264C101.099 0.623999 102.859 0.303999 104.907 0.303999C105.163 0.303999 105.419 0.335999 105.675 0.399998C105.931 0.399998 106.187 0.399998 106.443 0.399998V55.312ZM108.075 21.712H108.267C108.395 21.712 108.683 21.712 109.131 21.712C109.579 21.648 110.283 21.616 111.243 21.616H115.563C115.627 21.808 115.659 22.288 115.659 23.056C115.659 25.488 115.083 27.408 113.931 28.816C112.779 30.16 110.827 30.832 108.075 30.832V21.712ZM129.779 55.024C129.779 55.792 129.811 56.528 129.875 57.232C130.003 57.936 130.195 58.576 130.451 59.152C130.771 59.664 131.187 60.112 131.699 60.496C132.275 60.816 133.043 60.976 134.003 60.976C134.515 60.976 135.027 60.912 135.539 60.784C136.115 60.592 136.627 60.304 137.075 59.92C137.331 60.432 137.491 60.944 137.555 61.456C137.619 61.904 137.651 62.384 137.651 62.896C137.651 64.944 136.787 66.64 135.059 67.984C133.331 69.328 131.251 70 128.819 70C124.979 70 122.035 68.976 119.987 66.928C117.939 64.88 116.915 62.32 116.915 59.248V32.56C116.915 30.448 117.299 28.688 118.067 27.28C118.899 25.808 119.923 24.624 121.139 23.728C122.419 22.832 123.795 22.192 125.267 21.808C126.803 21.424 128.307 21.232 129.779 21.232V55.024ZM151.667 58.672C151.667 60.912 151.251 62.768 150.419 64.24C149.651 65.648 148.627 66.8 147.347 67.696C146.131 68.528 144.755 69.136 143.219 69.52C141.683 69.84 140.211 70 138.803 70V36.208C138.803 35.44 138.739 34.704 138.611 34C138.547 33.296 138.355 32.688 138.035 32.176C137.779 31.6 137.363 31.152 136.787 30.832C136.275 30.448 135.539 30.256 134.579 30.256C134.067 30.256 133.523 30.352 132.947 30.544C132.435 30.672 131.955 30.928 131.507 31.312C131.251 30.8 131.091 30.32 131.027 29.872C130.963 29.36 130.931 28.848 130.931 28.336C130.931 26.288 131.795 24.592 133.523 23.248C135.251 21.904 137.331 21.232 139.763 21.232C143.603 21.232 146.547 22.224 148.595 24.208C150.643 26.128 151.667 28.912 151.667 32.56V58.672ZM156.001 21.232H157.057C160.385 21.232 163.169 22.128 165.409 23.92C167.713 25.712 168.865 28.56 168.865 32.464V70H168.289C166.817 70 165.345 69.808 163.873 69.424C162.465 69.04 161.153 68.432 159.937 67.6C158.785 66.704 157.825 65.584 157.057 64.24C156.353 62.832 156.001 61.104 156.001 59.056V21.232ZM187.777 29.68C187.777 31.472 187.425 32.912 186.721 34C186.017 35.088 185.153 35.952 184.129 36.592C183.169 37.168 182.113 37.552 180.961 37.744C179.809 37.936 178.817 38.032 177.985 38.032C177.089 38.032 176.321 37.968 175.681 37.84V34.384C175.681 32.912 175.425 31.984 174.913 31.6C174.465 31.216 173.889 31.024 173.185 31.024C172.545 31.024 172.033 31.152 171.649 31.408C171.329 31.664 170.945 32.048 170.497 32.56C170.305 32.048 170.177 31.536 170.113 31.024C170.113 30.448 170.113 29.904 170.113 29.392C170.113 28.56 170.241 27.664 170.497 26.704C170.817 25.744 171.297 24.88 171.937 24.112C172.641 23.28 173.537 22.608 174.625 22.096C175.713 21.52 177.089 21.232 178.753 21.232C181.825 21.232 184.097 22.064 185.569 23.728C187.041 25.328 187.777 27.312 187.777 29.68ZM201.202 70H200.242C198.77 70 197.33 69.84 195.922 69.52C194.514 69.136 193.234 68.528 192.082 67.696C190.994 66.8 190.098 65.648 189.394 64.24C188.69 62.832 188.338 61.104 188.338 59.056V33.232C188.338 29.712 189.17 26.832 190.834 24.592C192.562 22.352 195.346 21.232 199.186 21.232C201.746 21.232 203.858 21.904 205.522 23.248C207.186 24.528 208.018 26.608 208.018 29.488C208.018 30.448 207.89 31.152 207.634 31.6C206.738 30.832 205.778 30.448 204.754 30.448C203.346 30.448 202.386 30.928 201.874 31.888C201.426 32.848 201.202 33.872 201.202 34.96V70ZM209.746 21.328C210.066 21.264 210.386 21.232 210.706 21.232H211.666C215.122 21.232 217.81 22.128 219.73 23.92C221.65 25.648 222.61 28.144 222.61 31.408V36.688C222.61 41.04 221.522 44.272 219.346 46.384C217.17 48.496 214.514 49.552 211.378 49.552H210.706C208.274 49.424 206.29 48.624 204.754 47.152C203.282 45.616 202.546 43.792 202.546 41.68C202.546 41.36 202.546 41.072 202.546 40.816C202.61 40.56 202.738 40.176 202.93 39.664C203.442 40.176 203.89 40.56 204.274 40.816C204.658 41.072 205.298 41.2 206.194 41.2C207.666 41.2 208.626 40.688 209.074 39.664C209.522 38.576 209.746 37.328 209.746 35.92V21.328ZM222.226 60.688C222.226 62.48 221.906 63.984 221.266 65.2C220.69 66.352 219.922 67.312 218.962 68.08C218.002 68.784 216.946 69.296 215.794 69.616C214.642 69.872 213.522 70 212.434 70C209.17 70 206.866 69.2 205.522 67.6C204.178 66 203.506 64.208 203.506 62.224C203.506 61.904 203.506 61.52 203.506 61.072C203.57 60.624 203.73 60.144 203.986 59.632C204.818 60.4 205.778 60.784 206.866 60.784C208.402 60.656 209.298 60.144 209.554 59.248C209.81 58.352 209.938 57.232 209.938 55.888V52.336C210.898 52.08 212.05 51.952 213.394 51.952C215.058 51.952 216.434 52.208 217.522 52.72C218.674 53.232 219.602 53.904 220.306 54.736C221.01 55.568 221.49 56.528 221.746 57.616C222.066 58.64 222.226 59.664 222.226 60.688Z" fill="#0D0D0D"/>
</svg>
